# Blender 4.2.3 LTS
# www.blender.org
mtllib SnakeTail.mtl
o Cone
v 2.061196 -0.004146 -0.186855
v 2.061196 -0.039652 -0.183166
v 2.061196 -0.073794 -0.172240
v 2.061196 -0.105260 -0.154497
v 2.061196 -0.132839 -0.130619
v 2.061196 -0.155474 -0.101524
v 2.061196 -0.172292 -0.068330
v 2.061195 -0.182649 -0.032312
v 2.061195 -0.186146 0.005145
v 2.061195 -0.182649 0.042603
v 2.061196 -0.172292 0.078620
v 2.061196 -0.155474 0.111815
v 2.061196 -0.132839 0.140910
v 2.061196 -0.105260 0.164787
v 2.061196 -0.073794 0.182530
v 2.061196 -0.039652 0.193456
v 2.061196 -0.004146 0.197145
v 2.061196 0.031360 0.193456
v 2.061196 0.065502 0.182530
v 2.061196 0.096968 0.164787
v 2.061196 0.124547 0.140910
v 2.061196 0.147181 0.111815
v 2.061196 0.164000 0.078620
v 2.061196 0.174357 0.042603
v 2.061196 0.177854 0.005145
v 2.061196 0.174357 -0.032312
v 2.061196 0.164000 -0.068330
v 2.061196 0.147181 -0.101524
v 2.061196 0.124547 -0.130619
v 2.061196 0.096968 -0.154497
v 2.061196 0.065502 -0.172240
v 2.061196 0.031360 -0.183166
v 2.465195 -0.004146 0.005145
vn -0.4843 -0.0000 -0.8749
vn -0.4835 -0.1798 -0.8567
vn -0.4813 -0.3510 -0.8032
vn -0.4780 -0.5061 -0.7179
vn -0.4742 -0.6390 -0.6057
vn -0.4705 -0.7455 -0.4722
vn -0.4674 -0.8229 -0.3231
vn -0.4654 -0.8698 -0.1640
vn -0.4647 -0.8855 -0.0000
vn -0.4654 -0.8698 0.1640
vn -0.4674 -0.8229 0.3231
vn -0.4705 -0.7455 0.4722
vn -0.4742 -0.6390 0.6057
vn -0.4780 -0.5061 0.7179
vn -0.4813 -0.3510 0.8032
vn -0.4835 -0.1798 0.8567
vn -0.4843 -0.0000 0.8749
vn -0.4835 0.1798 0.8567
vn -0.4813 0.3510 0.8032
vn -0.4780 0.5061 0.7179
vn -0.4742 0.6390 0.6057
vn -0.4705 0.7455 0.4722
vn -0.4674 0.8229 0.3231
vn -0.4654 0.8698 0.1640
vn -0.4647 0.8855 -0.0000
vn -0.4654 0.8698 -0.1640
vn -0.4674 0.8229 -0.3231
vn -0.4705 0.7455 -0.4722
vn -0.4742 0.6390 -0.6057
vn -0.4780 0.5061 -0.7179
vn -0.4813 0.3510 -0.8032
vn -0.4835 0.1798 -0.8567
vn 1.0000 -0.0000 -0.0000
vt 0.250000 0.490000
vt 0.250000 0.250000
vt 0.296822 0.485388
vt 0.341844 0.471731
vt 0.383337 0.449553
vt 0.419706 0.419706
vt 0.449553 0.383337
vt 0.471731 0.341844
vt 0.485388 0.296822
vt 0.490000 0.250000
vt 0.485388 0.203178
vt 0.471731 0.158156
vt 0.449553 0.116663
vt 0.419706 0.080294
vt 0.383337 0.050447
vt 0.341844 0.028269
vt 0.296822 0.014612
vt 0.250000 0.010000
vt 0.203178 0.014612
vt 0.158156 0.028269
vt 0.116663 0.050447
vt 0.080294 0.080294
vt 0.050447 0.116663
vt 0.028269 0.158156
vt 0.014612 0.203178
vt 0.010000 0.250000
vt 0.014612 0.296822
vt 0.028269 0.341844
vt 0.050447 0.383337
vt 0.080294 0.419706
vt 0.116663 0.449553
vt 0.158156 0.471731
vt 0.750000 0.490000
vt 0.796822 0.485388
vt 0.841844 0.471731
vt 0.883337 0.449553
vt 0.919706 0.419706
vt 0.949553 0.383337
vt 0.971731 0.341844
vt 0.985388 0.296822
vt 0.990000 0.250000
vt 0.985388 0.203178
vt 0.971731 0.158156
vt 0.949553 0.116663
vt 0.919706 0.080294
vt 0.883337 0.050447
vt 0.841844 0.028269
vt 0.796822 0.014612
vt 0.750000 0.010000
vt 0.703178 0.014612
vt 0.658156 0.028269
vt 0.616663 0.050447
vt 0.580294 0.080294
vt 0.550447 0.116663
vt 0.528269 0.158156
vt 0.514612 0.203178
vt 0.510000 0.250000
vt 0.514612 0.296822
vt 0.528269 0.341844
vt 0.550447 0.383337
vt 0.580294 0.419706
vt 0.616663 0.449553
vt 0.658156 0.471731
vt 0.703178 0.485388
vt 0.203178 0.485388
s 1
usemtl Material.001
f 1/1/1 33/2/33 2/3/2
f 2/3/2 33/2/33 3/4/3
f 3/4/3 33/2/33 4/5/4
f 4/5/4 33/2/33 5/6/5
f 5/6/5 33/2/33 6/7/6
f 6/7/6 33/2/33 7/8/7
f 7/8/7 33/2/33 8/9/8
f 8/9/8 33/2/33 9/10/9
f 9/10/9 33/2/33 10/11/10
f 10/11/10 33/2/33 11/12/11
f 11/12/11 33/2/33 12/13/12
f 12/13/12 33/2/33 13/14/13
f 13/14/13 33/2/33 14/15/14
f 14/15/14 33/2/33 15/16/15
f 15/16/15 33/2/33 16/17/16
f 16/17/16 33/2/33 17/18/17
f 17/18/17 33/2/33 18/19/18
f 18/19/18 33/2/33 19/20/19
f 19/20/19 33/2/33 20/21/20
f 20/21/20 33/2/33 21/22/21
f 21/22/21 33/2/33 22/23/22
f 22/23/22 33/2/33 23/24/23
f 23/24/23 33/2/33 24/25/24
f 24/25/24 33/2/33 25/26/25
f 25/26/25 33/2/33 26/27/26
f 26/27/26 33/2/33 27/28/27
f 27/28/27 33/2/33 28/29/28
f 28/29/28 33/2/33 29/30/29
f 29/30/29 33/2/33 30/31/30
f 30/31/30 33/2/33 31/32/31
f 1/33/1 2/34/2 3/35/3 4/36/4 5/37/5 6/38/6 7/39/7 8/40/8 9/41/9 10/42/10 11/43/11 12/44/12 13/45/13 14/46/14 15/47/15 16/48/16 17/49/17 18/50/18 19/51/19 20/52/20 21/53/21 22/54/22 23/55/23 24/56/24 25/57/25 26/58/26 27/59/27 28/60/28 29/61/29 30/62/30 31/63/31 32/64/32
f 31/32/31 33/2/33 32/65/32
f 32/65/32 33/2/33 1/1/1
